<svg width="53" height="53" viewBox="0 0 53 53" fill="none" xmlns="http://www.w3.org/2000/svg">
<path d="M11.1942 25.405L25.508 11.0912L48.2363 33.8195L33.9225 48.1334L11.1942 25.405Z" fill="white"/>
<path d="M2.53882 51.1293C2.94875 51.5392 3.49845 51.7129 4.02893 51.6549C4.02893 51.6549 14.0399 51.7129 19.7302 46.254C19.8025 46.1914 19.87 46.1239 19.9375 46.0563C22.0013 43.9924 21.9965 40.6505 19.9375 38.5915C17.8783 36.5323 14.5365 36.5276 12.4726 38.5915L2.53882 48.5253C1.82031 49.2439 1.82031 50.4108 2.53882 51.1293Z" fill="white"/>
<path d="M11.7239 46.9023C11.8588 47.8132 11.319 49.129 10.2506 50.2536C9.92448 50.591 9.58709 50.8834 9.23846 51.1083" fill="white"/>
<path d="M7.02292 49.8712C6.93295 50.5235 6.61806 51.1195 6.12323 51.5469L7.02292 49.8712Z" fill="white"/>
<path d="M27.3867 16.2878C28.4091 15.2654 28.4091 13.6077 27.3866 12.5853C26.3642 11.5629 24.7066 11.5629 23.6841 12.5853C22.6617 13.6077 22.6617 15.2654 23.6841 16.2878C24.7066 17.3102 26.3642 17.3102 27.3867 16.2878Z" fill="#2FC18C"/>
<path d="M47.2342 35.6428C48.2567 34.6204 48.2567 32.9628 47.2342 31.9403C46.2118 30.9179 44.5542 30.9179 43.5317 31.9403C42.5093 32.9628 42.5093 34.6204 43.5317 35.6428C44.5542 36.6653 46.2118 36.6653 47.2342 35.6428Z" fill="#2FC18C"/>
<path d="M16.0176 27.6566C17.0401 26.6342 17.0401 24.9765 16.0176 23.9541C14.9952 22.9317 13.3375 22.9317 12.3151 23.9541C11.2927 24.9765 11.2927 26.6342 12.3151 27.6566C13.3375 28.679 14.9952 28.679 16.0176 27.6566Z" fill="#2FC18C"/>
<path d="M35.429 47.0681C36.4514 46.0457 36.4514 44.388 35.429 43.3656C34.4066 42.3432 32.7489 42.3432 31.7265 43.3656C30.7041 44.388 30.7041 46.0457 31.7265 47.0681C32.7489 48.0905 34.4066 48.0905 35.429 47.0681Z" fill="#2FC18C"/>
<path d="M47.5309 33.2818L46.2029 34.6098L24.4704 12.8774L25.7984 11.5494L47.5309 33.2818Z" fill="#2FC18C"/>
<path d="M34.3224 45.9604L32.9944 47.2885L11.262 25.556L12.59 24.228L34.3224 45.9604Z" fill="#2FC18C"/>
<path d="M25.8098 11.007L27.1533 12.3505L12.6049 26.8989L11.2614 25.5554L25.8098 11.007Z" fill="#2FC18C"/>
<path d="M46.9888 32.1857L48.3323 33.5292L33.7839 48.0776L32.4404 46.7341L46.9888 32.1857Z" fill="#2FC18C"/>
<path d="M37.0434 36.7901C39.5651 34.2684 38.3065 28.9213 34.2322 24.847C30.1579 20.7726 24.8107 19.514 22.289 22.0357C19.7673 24.5574 21.026 29.9046 25.1003 33.9789C29.1746 38.0532 34.5217 39.3118 37.0434 36.7901Z" fill="#2FC18C"/>
<path d="M41.0223 26.5487L26.5486 41.0223C26.4966 41.0743 26.4394 41.1117 26.3769 41.144C26.1226 41.2682 25.7952 41.2153 25.575 40.9952L17.8985 33.3188C17.6783 33.0986 17.6254 32.7712 17.7498 32.5169C17.7821 32.4546 17.8195 32.3972 17.8715 32.3452L32.345 17.8714C32.3971 17.8194 32.4545 17.782 32.5168 17.7497C32.7711 17.6254 33.0985 17.6784 33.3187 17.8984L40.9952 25.5748C41.2154 25.795 41.2683 26.1224 41.1439 26.3768C41.1116 26.4392 41.0744 26.4966 41.0223 26.5487Z" fill="#2FC18C"/>
<path fill-rule="evenodd" clip-rule="evenodd" d="M17.8715 32.3452C17.8195 32.3972 17.7821 32.4546 17.7498 32.5169C17.6254 32.7712 17.6783 33.0986 17.8985 33.3188L25.575 40.9952C25.7952 41.2153 26.1226 41.2682 26.3769 41.144C26.4394 41.1117 26.4966 41.0743 26.5486 41.0223L41.0223 26.5487C41.0744 26.4966 41.1116 26.4392 41.1439 26.3768C41.2683 26.1224 41.2154 25.795 40.9952 25.5748L33.3187 17.8984C33.0985 17.6784 32.7711 17.6254 32.5168 17.7497C32.4545 17.782 32.3971 17.8194 32.345 17.8714L17.8715 32.3452ZM32.8184 19.9858L19.9859 32.8185L26.0753 38.9079L38.9079 26.0753L32.8184 19.9858Z" fill="#036B52"/>
<path d="M51.1293 2.53887C51.5392 2.94879 51.7128 3.4985 51.6549 4.02898C51.6549 4.02898 51.7128 14.0399 46.254 19.7302C46.1913 19.8026 46.1237 19.87 46.0563 19.9376C43.9924 22.0015 40.6505 21.9967 38.5914 19.9376C36.5323 17.8785 36.5275 14.5367 38.5914 12.4728L48.5252 2.53898C49.2439 1.82036 50.4108 1.82036 51.1293 2.53887Z" fill="white"/>
<path d="M46.9021 11.724C47.813 11.8589 49.1288 11.3191 50.2534 10.2507C50.5908 9.9246 50.8832 9.58722 51.1081 9.23859" fill="white"/>
<path d="M49.871 7.02307C50.5233 6.9331 51.1194 6.61821 51.5467 6.12338L49.871 7.02307Z" fill="white"/>
<path fill-rule="evenodd" clip-rule="evenodd" d="M11.7563 37.8752C14.2164 35.4151 18.1996 35.421 20.6538 37.8752C23.1078 40.3292 23.1139 44.3125 20.6538 46.7726L20.6483 46.7781C20.5892 46.8373 20.5071 46.9196 20.4145 47.0013C17.3701 49.9123 13.2353 51.3111 9.95181 51.9934C8.29366 52.3379 6.82058 52.5063 5.76057 52.5887C5.22995 52.6299 4.80117 52.6498 4.50248 52.6593C4.3531 52.664 4.23612 52.6662 4.15508 52.6672C4.12454 52.6676 4.09909 52.6678 4.07893 52.6679C3.27384 52.7386 2.44263 52.4657 1.82253 51.8456C0.708378 50.7315 0.708458 48.9232 1.82247 47.809L1.82253 47.809L11.7563 37.8752ZM4.0348 50.642L4.03769 50.642L4.05481 50.642C4.0709 50.6419 4.09626 50.6418 4.13044 50.6413C4.19882 50.6405 4.30248 50.6386 4.43795 50.6343C4.70896 50.6257 5.10674 50.6074 5.60356 50.5687C6.59842 50.4914 7.98373 50.333 9.5396 50.0097C12.6781 49.3576 16.3846 48.0598 19.0289 45.523L19.0475 45.5052L19.0669 45.4883C19.1071 45.4535 19.1494 45.4119 19.2206 45.3406L19.2212 45.34C20.8888 43.6723 20.8852 40.9718 19.2212 39.3078C17.557 37.6436 14.8566 37.6401 13.1889 39.3078L3.2552 49.2415C3.25518 49.2415 3.25516 49.2416 3.25514 49.2416C2.93218 49.5647 2.93228 50.0901 3.25514 50.413C3.43947 50.5973 3.68165 50.6738 3.919 50.6479L3.97673 50.6416L4.03417 50.642L4.03437 50.642H4.03445L4.0348 50.642Z" fill="#003BE5"/>
<path fill-rule="evenodd" clip-rule="evenodd" d="M5.47437 50.8081C5.86994 50.4125 6.51134 50.4124 6.90698 50.808L6.91904 50.82C7.31469 51.2156 7.31475 51.857 6.91918 52.2526C6.52361 52.6483 5.88221 52.6483 5.48657 52.2528L5.47451 52.2407C5.07886 51.8452 5.0788 51.2038 5.47437 50.8081Z" fill="#003BE5"/>
<path fill-rule="evenodd" clip-rule="evenodd" d="M11.5754 45.9002C12.1288 45.8182 12.6439 46.2004 12.7259 46.7538C12.83 47.4562 12.6662 48.2092 12.3687 48.899C12.0654 49.6021 11.5935 50.3108 10.9851 50.9513L10.979 50.9577L10.979 50.9576C10.616 51.3331 10.2193 51.6811 9.78765 51.9595C9.31753 52.2628 8.69055 52.1276 8.38724 51.6575C8.08394 51.1874 8.21917 50.5604 8.68929 50.2571C8.95399 50.0863 9.23099 49.8505 9.51921 49.5527C9.97756 49.0695 10.3088 48.5593 10.5083 48.0966C10.7141 47.6196 10.7527 47.2592 10.7218 47.0507C10.6398 46.4973 11.022 45.9822 11.5754 45.9002Z" fill="#003BE5"/>
<path fill-rule="evenodd" clip-rule="evenodd" d="M7.16136 48.8677C7.71558 48.9441 8.1029 49.4554 8.02645 50.0096C7.90418 50.8961 7.47391 51.7189 6.78538 52.3135C6.36196 52.6792 5.72227 52.6324 5.35659 52.209C4.99091 51.7856 5.03771 51.1459 5.46113 50.7802C5.76226 50.5201 5.96177 50.1509 6.01944 49.7328C6.09588 49.1785 6.60714 48.7912 7.16136 48.8677Z" fill="#003BE5"/>
<path fill-rule="evenodd" clip-rule="evenodd" d="M25.5741 12.8336C25.5305 12.7901 25.4598 12.7901 25.4162 12.8336L12.7729 25.4769C12.7294 25.5205 12.7294 25.5912 12.7729 25.6348L12.1384 26.2693L12.7729 25.6348L33.705 46.5669C33.7485 46.6105 33.8192 46.6105 33.8628 46.5669L46.5061 33.9235C46.5497 33.8799 46.5497 33.8092 46.5061 33.7657L25.5741 12.8336ZM23.9836 11.401C24.8184 10.5662 26.1719 10.5662 27.0067 11.401L47.9387 32.3331C48.7735 33.1678 48.7735 34.5213 47.9387 35.3561L35.2954 47.9995C34.4606 48.8343 33.1071 48.8343 32.2724 47.9995L11.3403 27.0674L12.0566 26.3511L11.3403 27.0674C10.5055 26.2326 10.5055 24.8791 11.3403 24.0443L23.9836 11.401Z" fill="#003BE5"/>
<path fill-rule="evenodd" clip-rule="evenodd" d="M50.4129 3.25519C50.09 2.93232 49.5646 2.93224 49.2415 3.2553L39.3077 13.1891C37.64 14.8568 37.6435 17.5572 39.3077 19.2213C40.9717 20.8854 43.6722 20.889 45.3399 19.2213C45.4124 19.1487 45.4534 19.1072 45.4882 19.067L45.5051 19.0475L45.5229 19.029C48.0597 16.3846 49.3575 12.6781 50.0096 9.53965C50.333 7.98378 50.4913 6.59847 50.5687 5.60361C50.6073 5.10679 50.6256 4.70901 50.6342 4.43799C50.6385 4.30253 50.6404 4.19887 50.6412 4.13049C50.6417 4.0963 50.6418 4.07095 50.6419 4.05486L50.6419 4.03774L50.6419 4.03485L50.6415 3.97678L50.6478 3.91904C50.6738 3.6817 50.5972 3.43951 50.4129 3.25519ZM52.6678 4.07898C52.7385 3.27389 52.4656 2.44268 51.8455 1.82257C50.7314 0.708415 48.9231 0.708496 47.8089 1.82269L37.8751 11.7565C35.415 14.2166 35.4209 18.1998 37.8751 20.6539C40.3291 23.108 44.3124 23.114 46.7725 20.6539L46.7836 20.6429C46.841 20.5853 46.9216 20.5047 47.0012 20.4146C49.9122 17.3702 51.311 13.2353 51.9933 9.95186C52.3379 8.29371 52.5062 6.82063 52.5886 5.76062C52.6298 5.23 52.6497 4.80122 52.6592 4.50253C52.6639 4.35315 52.6661 4.23617 52.6671 4.15513C52.6675 4.12459 52.6677 4.09914 52.6678 4.07898Z" fill="#003BE5"/>
<path fill-rule="evenodd" clip-rule="evenodd" d="M50.8079 5.47453C51.2035 5.07892 51.8449 5.07892 52.2405 5.47453L52.2526 5.48659C52.6482 5.88219 52.6482 6.5236 52.2526 6.9192C51.857 7.31481 51.2156 7.31481 50.82 6.9192L50.8079 6.90714C50.4123 6.51154 50.4123 5.87013 50.8079 5.47453Z" fill="#003BE5"/>
<path fill-rule="evenodd" clip-rule="evenodd" d="M51.6572 8.38737C52.1273 8.69067 52.2626 9.31765 51.9593 9.78777C51.6808 10.2194 51.3329 10.6161 50.9574 10.9791L50.9511 10.9852L50.9511 10.9852C50.3106 11.5936 49.6018 12.0655 48.8987 12.3688C48.209 12.6663 47.456 12.8301 46.7535 12.7261C46.2001 12.6441 45.8179 12.129 45.8999 11.5755C45.9819 11.0221 46.497 10.6399 47.0505 10.7219C47.2589 10.7528 47.6193 10.7142 48.0963 10.5084C48.559 10.3089 49.0693 9.97768 49.5525 9.51933C49.8503 9.23111 50.086 8.95411 50.2568 8.68942C50.5601 8.2193 51.1871 8.08406 51.6572 8.38737Z" fill="#003BE5"/>
<path fill-rule="evenodd" clip-rule="evenodd" d="M52.2088 5.35671C52.6322 5.72239 52.679 6.36208 52.3133 6.7855C51.7187 7.47403 50.8959 7.90431 50.0094 8.02658C49.4552 8.10302 48.9439 7.7157 48.8675 7.16148C48.791 6.60726 49.1783 6.096 49.7326 6.01956C50.1507 5.96189 50.5199 5.76238 50.78 5.46125C51.1457 5.03783 51.7854 4.99103 52.2088 5.35671Z" fill="#003BE5"/>
</svg>
